<?xml version="1.0" encoding="UTF-8"?>
<svg version="1.1" xmlns="http://www.w3.org/2000/svg" width="256" height="256">
<path d="M0 0 C0.78769775 -0.00428513 1.57539551 -0.00857025 2.38696289 -0.01298523 C4.05125976 -0.01872454 5.71558171 -0.01923172 7.37988281 -0.01489258 C9.92816834 -0.01173033 12.47529533 -0.03520324 15.0234375 -0.06054688 C16.64062353 -0.06281967 18.25781269 -0.06352346 19.875 -0.0625 C21.01884155 -0.07631462 21.01884155 -0.07631462 22.18579102 -0.09040833 C27.39595301 -0.04475371 27.39595301 -0.04475371 29.75195312 1.45849609 C31.35193964 3.94480133 32.67478621 6.48051518 33.96875 9.140625 C34.81373047 10.85862305 34.81373047 10.85862305 35.67578125 12.61132812 C36.26354636 13.8200571 36.85078106 15.02904412 37.4375 16.23828125 C38.5887724 18.60407929 39.7460852 20.96664539 40.90625 23.328125 C41.67098633 24.90194946 41.67098633 24.90194946 42.45117188 26.50756836 C43.77225007 28.9902319 45.17731522 31.11596173 46.9375 33.30078125 C47.41171387 32.33664307 47.88592773 31.37250488 48.37451172 30.37915039 C50.13146994 26.8110319 51.89630381 23.24685856 53.66357422 19.68383789 C54.42810863 18.13966033 55.19048796 16.59441385 55.95068359 15.0480957 C57.04223092 12.82871101 58.14140991 10.61325562 59.2421875 8.3984375 C59.5818454 7.70363785 59.9215033 7.0088382 60.27145386 6.29298401 C62.70975659 1.41465296 62.70975659 1.41465296 64.9375 0.30078125 C67.58936925 0.1654437 70.21374969 0.08813581 72.8671875 0.0625 C73.65392853 0.05442825 74.44066956 0.04635651 75.25125122 0.03804016 C76.91731564 0.02420221 78.58340839 0.01347875 80.24951172 0.00561523 C82.795794 -0.01160576 85.34078037 -0.05549292 87.88671875 -0.09960938 C89.50519878 -0.10973577 91.12368985 -0.11825204 92.7421875 -0.125 C93.5027243 -0.14250809 94.26326111 -0.16001617 95.04684448 -0.17805481 C98.51047874 -0.16386259 100.51745933 -0.01668134 103.31982422 2.10131836 C104.72521299 4.01214653 105.94519793 5.80593816 107.015625 7.91796875 C107.54470459 8.94204834 107.54470459 8.94204834 108.08447266 9.98681641 C108.44847168 10.7091748 108.8124707 11.4315332 109.1875 12.17578125 C111.45988228 16.61834114 113.72365853 21.03081203 116.3359375 25.28515625 C116.71073242 25.90148926 117.08552734 26.51782227 117.47167969 27.15283203 C118.5019731 28.82740472 119.55120445 30.49028293 120.6015625 32.15234375 C122.66602174 37.01770676 121.53982133 40.8058261 119.60229492 45.61474609 C119.04646729 46.73574707 118.49063965 47.85674805 117.91796875 49.01171875 C117.61812576 49.62415436 117.31828278 50.23658997 117.00935364 50.86758423 C116.05700385 52.8082967 115.09158567 54.742126 114.125 56.67578125 C113.17425669 58.59904615 112.22629932 60.52366334 111.27883911 62.44854736 C110.66867914 63.6879846 110.05743139 64.926887 109.44503784 66.16522217 C107.14706477 70.82579906 104.99985644 75.53190666 102.9375 80.30078125 C101.9475 80.30078125 100.9575 80.30078125 99.9375 80.30078125 C99.67646484 79.77347412 99.41542969 79.24616699 99.14648438 78.70288086 C94.33144802 68.98953586 89.51480635 59.2899884 84.27539062 49.79663086 C81.9375 45.51029553 81.9375 45.51029553 81.9375 43.30078125 C70.7175 43.30078125 59.4975 43.30078125 47.9375 43.30078125 C47.2775 45.61078125 46.6175 47.92078125 45.9375 50.30078125 C44.88769531 52.66503906 44.88769531 52.66503906 43.765625 54.75390625 C43.35103027 55.53338623 42.93643555 56.31286621 42.50927734 57.1159668 C42.07309082 57.91945557 41.6369043 58.72294434 41.1875 59.55078125 C40.74229004 60.38327393 40.29708008 61.2157666 39.83837891 62.07348633 C38.54540265 64.48661993 37.24323305 66.8945313 35.9375 69.30078125 C35.58977539 69.9438623 35.24205078 70.58694336 34.88378906 71.24951172 C33.24783818 74.27372269 31.60098658 77.29162871 29.9375 80.30078125 C26.16350067 79.04278147 26.00887041 78.06849645 24.265625 74.59375 C23.76546875 73.61341797 23.2653125 72.63308594 22.75 71.62304688 C21.9765625 70.07133789 21.9765625 70.07133789 21.1875 68.48828125 C19.65644823 65.45182677 18.1178172 62.42604064 16.51586914 59.42626953 C14.9375 56.30078125 14.9375 56.30078125 13.66967773 52.90576172 C12.10938779 49.26138759 10.87972866 46.97867564 7.9375 44.30078125 C1.7474443 42.2246227 -5.07019646 42.85236314 -11.5 43.05078125 C-13.29879998 43.06276569 -15.09764474 43.06933105 -16.89648438 43.0703125 C-21.28815619 43.0844691 -25.6727372 43.17257593 -30.0625 43.30078125 C-29.16795946 39.33310442 -27.4805757 35.95809561 -25.625 32.36328125 C-23.13877619 27.49454633 -20.71940948 22.60585698 -18.4140625 17.6484375 C-17.97118896 16.6989624 -17.52831543 15.7494873 -17.07202148 14.77124023 C-16.20027492 12.89493252 -15.33504342 11.01558216 -14.47680664 9.13305664 C-13.87533813 7.84322876 -13.87533813 7.84322876 -13.26171875 6.52734375 C-12.90940186 5.75986816 -12.55708496 4.99239258 -12.1940918 4.20166016 C-9.32856569 -0.61192911 -4.95110801 -0.00591753 0 0 Z " fill="#4F20DB" transform="translate(98.0625,47.69921875)"/>
<path d="M0 0 C2.66121264 2.37758468 4.12360312 4.84111662 5.7421875 8.0078125 C6.25136719 8.99523437 6.76054688 9.98265625 7.28515625 11 C7.80980469 12.03125 8.33445312 13.0625 8.875 14.125 C9.91289985 16.14903412 10.95194834 18.17247967 11.9921875 20.1953125 C12.49331055 21.17274414 12.99443359 22.15017578 13.51074219 23.15722656 C15.29918746 26.57110472 17.18840786 29.91970216 19.12158203 33.25341797 C20 35 20 35 20 37 C30.89 36.67 41.78 36.34 53 36 C57.56771837 27.51709445 62.05222822 19.01845063 66.296875 10.36914062 C68.05246283 6.81061508 69.90249334 3.36891839 72 0 C75 1 75 1 76.76171875 4 C77.41448315 5.32806129 78.05562807 6.6618722 78.6875 8 C79.20316528 9.06456421 79.20316528 9.06456421 79.72924805 10.15063477 C80.45682811 11.65815422 81.17943348 13.16808311 81.89746094 14.68017578 C82.98499368 16.96842558 84.08866692 19.24828679 85.1953125 21.52734375 C85.90202604 22.99692286 86.6077845 24.46696172 87.3125 25.9375 C87.63758545 26.60974609 87.9626709 27.28199219 88.29760742 27.97460938 C89.23949545 29.9674127 90.12698002 31.97615764 91 34 C91.3375531 34.73078262 91.6751062 35.46156525 92.02288818 36.2144928 C93.29273142 39.3089726 94.26517132 41.74161838 93.56188965 45.07907104 C92.64692536 47.24652862 91.58252771 49.21793481 90.390625 51.24609375 C89.98922302 51.9832814 89.58782104 52.72046906 89.17425537 53.47999573 C87.89400228 55.815898 86.57342804 58.12583846 85.25 60.4375 C84.37481699 62.01603605 83.5023904 63.59610368 82.6328125 65.17773438 C81.0432338 68.05991538 79.43885058 70.93253204 77.81347656 73.79467773 C76.84225425 75.51131447 75.88205606 77.23588788 75 79 C61.8 79 48.6 79 35 79 C19 48.72972973 19 48.72972973 19 46 C18.34 46 17.68 46 17 46 C16.73719238 46.85609863 16.47438477 47.71219727 16.20361328 48.59423828 C14.96928383 52.08691493 13.46035001 55.21205907 11.7421875 58.4921875 C11.17870605 59.5735498 10.61522461 60.65491211 10.03466797 61.76904297 C9.32197754 63.12400879 8.60928711 64.47897461 7.875 65.875 C5.60625 70.20625 3.3375 74.5375 1 79 C-11.87 79 -24.74 79 -38 79 C-43.28314645 69.03749527 -48.53162377 59.06103572 -53.625 49 C-54.06247559 48.14631836 -54.49995117 47.29263672 -54.95068359 46.41308594 C-55.55130615 45.2186084 -55.55130615 45.2186084 -56.1640625 44 C-56.69700928 42.948125 -56.69700928 42.948125 -57.24072266 41.875 C-58 40 -58 40 -58 37 C-45.46 37 -32.92 37 -20 37 C-19.34 35.35 -18.68 33.7 -18 32 C-16.81490233 29.65710224 -15.61166461 27.3347098 -14.375 25.01953125 C-14.02743652 24.36546799 -13.67987305 23.71140472 -13.32177734 23.03752136 C-12.59017779 21.66274372 -11.85724333 20.28867573 -11.12304688 18.9152832 C-9.99929307 16.81117635 -8.88224891 14.70360059 -7.765625 12.59570312 C-7.05248642 11.2575976 -6.33895824 9.91969962 -5.625 8.58203125 C-5.29161621 7.95182571 -4.95823242 7.32162018 -4.61474609 6.6723175 C-3.24963013 4.12970577 -2.05315286 2.05315286 0 0 Z " fill="#F2B862" transform="translate(89,123)"/>
<path d="M0 0 C0.625 1.875 0.625 1.875 1 4 C-1 6 -1 6 -4.62353516 6.22705078 C-6.17874689 6.22673357 -7.73398051 6.21540299 -9.2890625 6.1953125 C-10.51669815 6.19106766 -10.51669815 6.19106766 -11.76913452 6.18673706 C-14.38790393 6.17552532 -17.00633364 6.15041929 -19.625 6.125 C-21.39843257 6.11497147 -23.17187049 6.1058454 -24.9453125 6.09765625 C-29.29700626 6.07558278 -33.6484455 6.04104644 -38 6 C-32.56586928 16.93283884 -32.56586928 16.93283884 -26.99609375 27.796875 C-26.56619141 28.62960938 -26.13628906 29.46234375 -25.69335938 30.3203125 C-24.82957558 31.99145876 -23.95664484 33.6578987 -23.07617188 35.3203125 C-22.65787109 36.13757813 -22.23957031 36.95484375 -21.80859375 37.796875 C-21.43532959 38.51198242 -21.06206543 39.22708984 -20.67749023 39.96386719 C-19.86516852 42.40522326 -20.29814705 43.57646185 -21 46 C-23.71354396 40.64697998 -26.4192357 35.29009313 -29.11767578 29.92944336 C-30.03706686 28.10576247 -30.95860748 26.28316363 -31.88232422 24.46166992 C-33.20844903 21.84574274 -34.52683562 19.2260422 -35.84375 16.60546875 C-36.25935181 15.78974899 -36.67495361 14.97402924 -37.10314941 14.1335907 C-37.4835437 13.37302872 -37.86393799 12.61246674 -38.25585938 11.82885742 C-38.59339233 11.16045334 -38.93092529 10.49204926 -39.27868652 9.8033905 C-40 8 -40 8 -40 5 C-27.46 5 -14.92 5 -2 5 C-1.34 3.35 -0.68 1.7 0 0 Z " fill="#EBBF7F" transform="translate(71,155)"/>
<path d="M0 0 C1.1197034 3.7829979 0.74786637 5.41687395 -1 9 C-2.485 11.475 -2.485 11.475 -4 14 C7.88 14 19.76 14 32 14 C32 14.66 32 15.32 32 16 C32.66 16 33.32 16 34 16 C34.495 18.475 34.495 18.475 35 21 C34.34 21 33.68 21 33 21 C32.34 19.68 31.68 18.36 31 17 C18.46 16.67 5.92 16.34 -7 16 C-6.0399975 12.15998999 -4.72988128 9.25849102 -2.9375 5.75 C-2.11572266 4.13351563 -2.11572266 4.13351563 -1.27734375 2.484375 C-0.64505859 1.25460938 -0.64505859 1.25460938 0 0 Z " fill="#6242CA" transform="translate(75,75)"/>
<path d="M0 0 C0.66 0 1.32 0 2 0 C2.72316406 1.48113281 2.72316406 1.48113281 3.4609375 2.9921875 C4.09874577 4.2865631 4.73677829 5.58082821 5.375 6.875 C5.69210938 7.52597656 6.00921875 8.17695312 6.3359375 8.84765625 C7.68890121 11.58177041 8.82772518 13.82772518 11 16 C14.465 8.575 14.465 8.575 18 1 C18.66 1 19.32 1 20 1 C18.60121198 5.46797338 16.86369228 9.63822079 14.875 13.875 C14.33617187 15.02742188 13.79734375 16.17984375 13.2421875 17.3671875 C12.62730469 18.67042969 12.62730469 18.67042969 12 20 C11.01 20 10.02 20 9 20 C7.49352402 17.04492094 5.99593635 14.08542659 4.5 11.125 C4.07074219 10.28324219 3.64148438 9.44148438 3.19921875 8.57421875 C2.79316406 7.76855469 2.38710937 6.96289062 1.96875 6.1328125 C1.59169922 5.38918457 1.21464844 4.64555664 0.82617188 3.87939453 C0 2 0 2 0 0 Z " fill="#5D3ECA" transform="translate(189,108)"/>
<path d="M0 0 C2.29648357 2.89585905 4.04347557 5.8172031 5.6875 9.125 C6.12449219 9.99382812 6.56148438 10.86265625 7.01171875 11.7578125 C8 14 8 14 8 16 C7.34 16 6.68 16 6 16 C4.9901527 14.08850332 3.99245505 12.17058431 3 10.25 C2.443125 9.18265625 1.88625 8.1153125 1.3125 7.015625 C0 4 0 4 0 0 Z " fill="#EBBF7E" transform="translate(96,135)"/>
<path d="M0 0 C1.11446301 3.80039903 0.79584021 5.40831958 -1 9 C-2.29788956 11.02318078 -3.62464661 13.02866014 -5 15 C-6 12 -6 12 -4.78515625 9.08203125 C-4.21667969 8.00308594 -3.64820312 6.92414063 -3.0625 5.8125 C-2.49660156 4.72582031 -1.93070312 3.63914062 -1.34765625 2.51953125 C-0.90292969 1.68808594 -0.45820312 0.85664062 0 0 Z " fill="#5C3BCC" transform="translate(75,75)"/>
<path d="M0 0 C0.99 0.33 1.98 0.66 3 1 C3.33 2.98 3.66 4.96 4 7 C3.34 5.68 2.68 4.36 2 3 C1.34 3 0.68 3 0 3 C-0.66 4.32 -1.32 5.64 -2 7 C-1.125 1.125 -1.125 1.125 0 0 Z " fill="#EBC07F" transform="translate(106,166)"/>
<path d="M0 0 C0.66 0 1.32 0 2 0 C0.84414715 3.91211733 -0.35534962 6.8745041 -3 10 C-2.25 3.375 -2.25 3.375 0 0 Z " fill="#7358C8" transform="translate(214,95)"/>
</svg>
